<?xml version="1.0" encoding="UTF-8"?>
<svg width="100" height="100" version="1.1" viewBox="0 0 100 100" xmlns="http://www.w3.org/2000/svg">
 <g fill="#2979ff">
  <path d="m50 5c-24.853 0-45 20.147-45 45s20.147 45 45 45 45-20.147 45-45-20.147-45-45-45zm0 5c22.091 0 40 17.909 40 40s-17.909 40-40 40-40-17.909-40-40 17.909-40 40-40z"/>
  <path d="m50 25c-13.807 0-25 11.193-25 25s11.193 25 25 25 25-11.193 25-25-11.193-25-25-25zm0 5c11.046 0 20 8.9543 20 20s-8.9543 20-20 20-20-8.9543-20-20 8.9543-20 20-20z"/>
  <circle cx="50" cy="50" r="15"/>
 </g>
</svg> 